<svg xmlns="http://www.w3.org/2000/svg" viewBox="0 0 385.89 90.19"><defs><style>.cls-1{fill:#1d1d1b;}</style></defs><g id="Layer_2" data-name="Layer 2"><g id="Layer_1-2" data-name="Layer 1"><polygon class="cls-1" points="38.92 0.95 19.1 42.86 18.98 42.86 0 0.95 3.88 0 19.04 33.66 35.04 0 38.92 0.95"/><path class="cls-1" d="M77.7,22.09,70.89,8.42,64,22.09ZM91.79,41.91l-3.58.83-8.42-17H62.24l-8.3,17-3.94-1L70.84,0H71Z"/><polygon class="cls-1" points="127.22 38.21 126.09 41.91 108.6 41.91 108.6 0.95 112.3 0 112.3 38.21 127.22 38.21"/><path class="cls-1" d="M173.41,29q0,6.51-3.85,10.21t-10.48,3.7q-6.63,0-10.48-3.7T144.75,29V1l3.7-.95V29.07a9.74,9.74,0,0,0,2.63,6.69,10.14,10.14,0,0,0,8,3.4,9.92,9.92,0,0,0,7.82-3.4,11.37,11.37,0,0,0,2.81-7.82V1l3.7-.95Z"/><polygon class="cls-1" points="218.99 38.21 218.34 41.91 195.12 41.91 195.12 0.95 217.26 0.95 217.98 4.66 198.82 4.66 198.82 19.28 215.23 19.28 215.23 22.98 198.82 22.98 198.82 38.21 218.99 38.21"/><path class="cls-1" d="M264.65,36.42,264.11,41a18.45,18.45,0,0,1-7.7,1.91,20.09,20.09,0,0,1-14.69-6.21,20.72,20.72,0,0,1-6.2-15.22,20.72,20.72,0,0,1,6.2-15.22A20.09,20.09,0,0,1,256.41,0a18.45,18.45,0,0,1,7.7,1.91l.54,4.54a13.49,13.49,0,0,0-8.54-2.75,15.37,15.37,0,0,0-11.79,5.16,17.94,17.94,0,0,0-4.74,12.57A17.94,17.94,0,0,0,244.32,34a15.37,15.37,0,0,0,11.79,5.16,13.48,13.48,0,0,0,8.54-2.74"/><path class="cls-1" d="M321.39,21.43A17.08,17.08,0,0,0,316.16,9a17.23,17.23,0,0,0-24.77,0,17.11,17.11,0,0,0-5.22,12.48,17.07,17.07,0,0,0,5.22,12.47,17.21,17.21,0,0,0,24.77,0,17,17,0,0,0,5.23-12.47m4.05,0A20.4,20.4,0,0,1,319,36.59a21.69,21.69,0,0,1-30.51,0,20.4,20.4,0,0,1-6.41-15.16,20.4,20.4,0,0,1,6.41-15.16,21.69,21.69,0,0,1,30.51,0A20.4,20.4,0,0,1,325.44,21.43Z"/><polygon class="cls-1" points="385.89 41.91 382.19 42.38 376.34 12.06 376.22 12.06 363.81 42.86 363.69 42.86 350.79 12.06 350.67 12.06 345.06 42.38 341.36 41.91 349.72 0 349.84 0 363.75 33.37 377.54 0 377.65 0 385.89 41.91"/><path class="cls-1" d="M5.43,64.57H19V67H8.09v6H17.7v2.33H8.09v8.9H5.43Z"/><path class="cls-1" d="M25.1,69.88v9.47a4,4,0,0,0,.34,1.79,2.34,2.34,0,0,0,2.32,1.28,3.28,3.28,0,0,0,3.32-2.24,9.11,9.11,0,0,0,.48-3.29v-7H34V84.15H31.7l0-2.1a4.74,4.74,0,0,1-1.13,1.37,4.94,4.94,0,0,1-3.27,1.12q-3,0-4.08-2a6.08,6.08,0,0,1-.59-2.92v-9.7Z"/><path class="cls-1" d="M39.66,64.57h2.4V84.15h-2.4Z"/><path class="cls-1" d="M47.58,64.57H50V84.15h-2.4Z"/><path class="cls-1" d="M57,79.67a3.37,3.37,0,0,0,.61,1.84,3.88,3.88,0,0,0,3.21,1.16,4.73,4.73,0,0,0,2.39-.58,1.91,1.91,0,0,0,1-1.79,1.54,1.54,0,0,0-.83-1.4,10.48,10.48,0,0,0-2.08-.68l-1.94-.48a9.62,9.62,0,0,1-2.74-1A3,3,0,0,1,55.06,74a4.11,4.11,0,0,1,1.48-3.28,5.94,5.94,0,0,1,4-1.26c2.18,0,3.75.64,4.71,1.9A4,4,0,0,1,66.11,74H63.85a2.79,2.79,0,0,0-.59-1.47,3.8,3.8,0,0,0-2.93-.94,3.55,3.55,0,0,0-2.11.52,1.6,1.6,0,0,0-.72,1.37,1.68,1.68,0,0,0,.94,1.48,5.51,5.51,0,0,0,1.6.59l1.62.39a12.43,12.43,0,0,1,3.53,1.21A3.22,3.22,0,0,1,66.59,80a4.39,4.39,0,0,1-1.46,3.29,6.27,6.27,0,0,1-4.46,1.39c-2.15,0-3.68-.48-4.57-1.45a5.42,5.42,0,0,1-1.44-3.58Z"/><path class="cls-1" d="M71.68,65.89h2.43v4h2.28v2H74.11v9.31a1,1,0,0,0,.51,1,2.06,2.06,0,0,0,.93.15h.37l.47,0v1.9a4.85,4.85,0,0,1-.86.17,7.32,7.32,0,0,1-1,.06,2.61,2.61,0,0,1-2.28-.86,3.82,3.82,0,0,1-.6-2.23V71.84H69.75v-2h1.93Z"/><path class="cls-1" d="M88.47,75.51a1.28,1.28,0,0,0,1.1-.69,2.05,2.05,0,0,0,.16-.92,2,2,0,0,0-.87-1.79,4.64,4.64,0,0,0-2.49-.55,3.15,3.15,0,0,0-2.66,1,3.37,3.37,0,0,0-.57,1.67H80.9a4.12,4.12,0,0,1,1.71-3.68,7,7,0,0,1,3.81-1,7.76,7.76,0,0,1,4.09,1,3.26,3.26,0,0,1,1.56,3V81.7a1.07,1.07,0,0,0,.15.6.75.75,0,0,0,.65.23l.36,0,.42-.06v1.77c-.37.1-.66.17-.85.2a5.7,5.7,0,0,1-.8,0,2,2,0,0,1-1.8-.88,3.48,3.48,0,0,1-.41-1.32,6.2,6.2,0,0,1-2.11,1.67,6.49,6.49,0,0,1-3,.7,4.51,4.51,0,0,1-3.25-1.2,4,4,0,0,1-1.26-3,3.87,3.87,0,0,1,1.24-3.07A5.91,5.91,0,0,1,84.64,76Zm-5,6.48a2.79,2.79,0,0,0,1.8.6A5.48,5.48,0,0,0,87.67,82a3.3,3.3,0,0,0,2-3.18V76.9a4.63,4.63,0,0,1-1.13.47,9.84,9.84,0,0,1-1.36.26l-1.45.19a5.69,5.69,0,0,0-2,.54,2.14,2.14,0,0,0-1.11,2A1.94,1.94,0,0,0,83.42,82Z"/><path class="cls-1" d="M107.29,70.64a5.68,5.68,0,0,1,1.82,4h-2.34a4.31,4.31,0,0,0-1-2.2,3.09,3.09,0,0,0-2.44-.87,3.38,3.38,0,0,0-3.28,2.24,9,9,0,0,0-.64,3.58,6.64,6.64,0,0,0,.91,3.6,3.52,3.52,0,0,0,5.22.56,5,5,0,0,0,1.2-2.49h2.34a6.29,6.29,0,0,1-2,4.15A6.22,6.22,0,0,1,103,84.57a5.48,5.48,0,0,1-4.47-2,7.83,7.83,0,0,1-1.67-5.11,8.58,8.58,0,0,1,1.83-5.85,5.89,5.89,0,0,1,4.65-2.09A6.25,6.25,0,0,1,107.29,70.64Z"/><path class="cls-1" d="M113.63,64.57h2.31V75.94l6.15-6.06h3.06l-5.48,5.31,5.79,9h-3.07l-4.48-7.26-2,1.9v5.36h-2.31Z"/><path class="cls-1" d="M139.53,64.57h3.8L149,81.13l5.59-16.56h3.78V84.15h-2.54V72.6c0-.4,0-1.06,0-2s0-1.91,0-3l-5.59,16.51h-2.63L142,67.64v.6c0,.48,0,1.21,0,2.19s0,1.71,0,2.17V84.15h-2.54Z"/><path class="cls-1" d="M171.63,75.51a1.31,1.31,0,0,0,1.11-.69,2.2,2.2,0,0,0,.16-.92,2,2,0,0,0-.87-1.79,4.71,4.71,0,0,0-2.5-.55,3.15,3.15,0,0,0-2.66,1,3.37,3.37,0,0,0-.57,1.67h-2.24a4.12,4.12,0,0,1,1.71-3.68,7,7,0,0,1,3.81-1,7.76,7.76,0,0,1,4.09,1,3.26,3.26,0,0,1,1.56,3V81.7a1.07,1.07,0,0,0,.15.6.75.75,0,0,0,.65.23l.36,0,.42-.06v1.77a8.5,8.5,0,0,1-.85.2,5.61,5.61,0,0,1-.8,0,2,2,0,0,1-1.8-.88,3.48,3.48,0,0,1-.41-1.32,6.2,6.2,0,0,1-2.11,1.67,6.49,6.49,0,0,1-3,.7,4.51,4.51,0,0,1-3.25-1.2,4,4,0,0,1-1.26-3,3.9,3.9,0,0,1,1.24-3.07A5.91,5.91,0,0,1,167.81,76Zm-5,6.48a2.83,2.83,0,0,0,1.8.6,5.48,5.48,0,0,0,2.45-.58,3.3,3.3,0,0,0,2-3.18V76.9a4.47,4.47,0,0,1-1.13.47,9.57,9.57,0,0,1-1.36.26l-1.45.19a5.69,5.69,0,0,0-2,.54,2.14,2.14,0,0,0-1.11,2A1.94,1.94,0,0,0,166.58,82Z"/><path class="cls-1" d="M181.12,69.88h2.28v2.46a5.33,5.33,0,0,1,1.37-1.75,3.56,3.56,0,0,1,2.52-1h.23l.54.05v2.54l-.39-.06h-.39a3.43,3.43,0,0,0-2.79,1.17,4,4,0,0,0-1,2.68v8.21h-2.4Z"/><path class="cls-1" d="M192.12,64.57h2.3V75.94l6.15-6.06h3.07l-5.49,5.31,5.8,9h-3.07l-4.49-7.26-2,1.9v5.36h-2.3Z"/><path class="cls-1" d="M216,70.27a5.35,5.35,0,0,1,2.16,1.85,6.36,6.36,0,0,1,1,2.52,15.61,15.61,0,0,1,.22,3.14H209a6.28,6.28,0,0,0,1,3.5,3.42,3.42,0,0,0,2.95,1.31,3.8,3.8,0,0,0,3-1.24,4.36,4.36,0,0,0,.88-1.68h2.36a5.18,5.18,0,0,1-.62,1.76A6.71,6.71,0,0,1,217.34,83a5.55,5.55,0,0,1-2.68,1.44,8.27,8.27,0,0,1-1.95.21,6,6,0,0,1-4.49-1.94,7.55,7.55,0,0,1-1.84-5.43,8.24,8.24,0,0,1,1.86-5.59,6.08,6.08,0,0,1,4.84-2.14A6.49,6.49,0,0,1,216,70.27Zm.86,5.61a6.43,6.43,0,0,0-.67-2.5,3.47,3.47,0,0,0-3.27-1.73,3.63,3.63,0,0,0-2.75,1.19,4.53,4.53,0,0,0-1.17,3Z"/><path class="cls-1" d="M224.52,65.89H227v4h2.27v2H227v9.31a1,1,0,0,0,.5,1,2.14,2.14,0,0,0,.94.15h.37l.46,0v1.9a4.74,4.74,0,0,1-.85.17,7.43,7.43,0,0,1-1,.06,2.61,2.61,0,0,1-2.28-.86,3.82,3.82,0,0,1-.6-2.23V71.84h-1.93v-2h1.93Z"/><path class="cls-1" d="M233.62,64.57h2.43v2.72h-2.43Zm0,5.38h2.43v14.2h-2.43Z"/><path class="cls-1" d="M241.56,69.88h2.28v2A6.35,6.35,0,0,1,246,70.11a5.68,5.68,0,0,1,2.52-.55c2,0,3.4.7,4.11,2.12a7.55,7.55,0,0,1,.58,3.32v9.15h-2.44v-9a5,5,0,0,0-.38-2.11,2.34,2.34,0,0,0-2.32-1.33,4.9,4.9,0,0,0-1.4.17,3.62,3.62,0,0,0-1.73,1.17,3.54,3.54,0,0,0-.78,1.46,9.9,9.9,0,0,0-.18,2.16v7.47h-2.4Z"/><path class="cls-1" d="M266.73,70.45a6.74,6.74,0,0,1,1.38,1.36V70h2.21V83a9.56,9.56,0,0,1-.8,4.29q-1.49,2.91-5.62,2.91a6.84,6.84,0,0,1-3.86-1,4.05,4.05,0,0,1-1.76-3.24h2.44a2.77,2.77,0,0,0,.69,1.48,3.48,3.48,0,0,0,2.55.8c1.83,0,3-.64,3.59-1.94a11.11,11.11,0,0,0,.46-4.09,4.57,4.57,0,0,1-1.72,1.62,6.19,6.19,0,0,1-6.71-1.11q-1.74-1.65-1.74-5.44a8.29,8.29,0,0,1,1.75-5.6,5.4,5.4,0,0,1,4.21-2A5.21,5.21,0,0,1,266.73,70.45ZM267,73a3.49,3.49,0,0,0-2.77-1.28,3.42,3.42,0,0,0-3.45,2.38,9.27,9.27,0,0,0-.49,3.32,5.92,5.92,0,0,0,1,3.67,3.15,3.15,0,0,0,2.62,1.26A3.67,3.67,0,0,0,267.52,80a7.52,7.52,0,0,0,.59-3.08A6,6,0,0,0,267,73Z"/><path class="cls-1" d="M291.93,64.57h3L302,84.15h-2.9l-2-5.86H289.4l-2.12,5.86h-2.72Zm4.36,11.56-3-8.65-3.16,8.65Z"/><path class="cls-1" d="M313.79,70.45a6.74,6.74,0,0,1,1.38,1.36V70h2.21V83a9.56,9.56,0,0,1-.8,4.29q-1.49,2.91-5.62,2.91a6.84,6.84,0,0,1-3.86-1,4,4,0,0,1-1.75-3.24h2.43a2.77,2.77,0,0,0,.69,1.48,3.48,3.48,0,0,0,2.55.8c1.83,0,3-.64,3.59-1.94a10.89,10.89,0,0,0,.46-4.09,4.57,4.57,0,0,1-1.72,1.62,6.19,6.19,0,0,1-6.71-1.11c-1.16-1.1-1.73-2.91-1.73-5.44a8.29,8.29,0,0,1,1.74-5.6,5.42,5.42,0,0,1,4.22-2A5.2,5.2,0,0,1,313.79,70.45Zm.29,2.57a3.48,3.48,0,0,0-2.77-1.28,3.42,3.42,0,0,0-3.45,2.38,9.5,9.5,0,0,0-.49,3.32,5.92,5.92,0,0,0,1,3.67A3.13,3.13,0,0,0,311,82.37,3.66,3.66,0,0,0,314.58,80a7.52,7.52,0,0,0,.59-3.08A6,6,0,0,0,314.08,73Z"/><path class="cls-1" d="M331.77,70.27a5.35,5.35,0,0,1,2.16,1.85,6.37,6.37,0,0,1,1,2.52,16.61,16.61,0,0,1,.21,3.14H324.72a6.2,6.2,0,0,0,1,3.5,3.42,3.42,0,0,0,2.95,1.31,3.79,3.79,0,0,0,3-1.24,4.23,4.23,0,0,0,.88-1.68h2.36a5,5,0,0,1-.62,1.76A6.2,6.2,0,0,1,333.1,83a5.51,5.51,0,0,1-2.68,1.44,8.21,8.21,0,0,1-1.95.21A6,6,0,0,1,324,82.72a7.6,7.6,0,0,1-1.84-5.43A8.24,8.24,0,0,1,324,71.7a6.09,6.09,0,0,1,4.85-2.14A6.48,6.48,0,0,1,331.77,70.27Zm.86,5.61a6.26,6.26,0,0,0-.67-2.5,3.46,3.46,0,0,0-3.27-1.73A3.6,3.6,0,0,0,326,72.84a4.48,4.48,0,0,0-1.18,3Z"/><path class="cls-1" d="M340,69.88h2.28v2a6.35,6.35,0,0,1,2.14-1.79,5.68,5.68,0,0,1,2.52-.55c2,0,3.4.7,4.11,2.12a7.55,7.55,0,0,1,.58,3.32v9.15H349.2v-9a4.83,4.83,0,0,0-.38-2.11,2.34,2.34,0,0,0-2.32-1.33,4.9,4.9,0,0,0-1.4.17,3.67,3.67,0,0,0-1.73,1.17,3.54,3.54,0,0,0-.78,1.46,9.9,9.9,0,0,0-.18,2.16v7.47H340Z"/><path class="cls-1" d="M366.64,70.64a5.64,5.64,0,0,1,1.82,4h-2.34a4.31,4.31,0,0,0-1-2.2,3.07,3.07,0,0,0-2.44-.87,3.38,3.38,0,0,0-3.28,2.24,9,9,0,0,0-.64,3.58,6.73,6.73,0,0,0,.91,3.6,3.52,3.52,0,0,0,5.22.56,5,5,0,0,0,1.2-2.49h2.34a6.29,6.29,0,0,1-2,4.15,6.22,6.22,0,0,1-4.09,1.32,5.48,5.48,0,0,1-4.47-2,7.83,7.83,0,0,1-1.66-5.11,8.58,8.58,0,0,1,1.82-5.85,5.89,5.89,0,0,1,4.65-2.09A6.25,6.25,0,0,1,366.64,70.64Z"/><path class="cls-1" d="M381.74,69.88h2.65q-.51,1.37-2.25,6.27c-.88,2.45-1.6,4.45-2.19,6A40.13,40.13,0,0,1,377,88.8a3.34,3.34,0,0,1-2.93,1.2,5.21,5.21,0,0,1-.78,0,5.06,5.06,0,0,1-.67-.14V87.63a6.37,6.37,0,0,0,.9.21,3.13,3.13,0,0,0,.5,0,1.66,1.66,0,0,0,1-.22,1.91,1.91,0,0,0,.53-.53c0-.08.2-.44.48-1.1l.6-1.46-5.28-14.69h2.72l3.82,11.62Z"/></g></g></svg>